<svg width="159" height="54" viewBox="0 0 159 54" fill="none" xmlns="http://www.w3.org/2000/svg">
<path d="M14.4248 28.4957V28.0462C14.4248 26.9796 13.5622 26.1153 12.4954 26.1153H9.4298C8.36468 26.1153 7.50045 26.9796 7.50045 28.0462V28.4515C7.50045 29.5118 8.36151 30.3713 9.42177 30.3713H16.2559C19.3865 30.3713 21.9252 32.9115 21.9252 36.0421V39.3626C21.9252 43.1737 18.8374 46.2615 15.0261 46.2615H6.89909C3.0895 46.2615 0 43.1737 0 39.3626V37.5109H7.50045V38.4668C7.50045 39.5336 8.36468 40.3976 9.4298 40.3976H12.4954C13.5622 40.3976 14.4248 39.5336 14.4248 38.4668V37.7261C14.4248 36.6657 13.5654 35.8046 12.5049 35.8046H5.6708C2.53874 35.8046 0 33.2661 0 30.1353V27.1504C0 23.3393 3.0895 20.2498 6.89909 20.2498H15.0246C18.8357 20.2498 21.9252 23.341 21.9252 27.1504V28.4957H14.4248Z" fill="white"/>
<path d="M49.1174 20.4089V38.3584C49.1174 42.6364 45.6496 46.1025 41.3733 46.1025H33.6861C29.4079 46.1025 25.9419 42.6364 25.9419 38.3584V20.4089H33.3458V36.7567C33.3458 38.2507 34.5565 39.4614 36.0507 39.4614H39.0071C40.5012 39.4614 41.712 38.2507 41.712 36.7567V20.4089H49.1174Z" fill="white"/>
<path d="M134.37 45.9674H126.599V20.544H134.37V45.9674Z" fill="white"/>
<path d="M152.689 45.9674H144.918V20.544H152.689V45.9674Z" fill="white"/>
<path d="M159 26.8968H138.397V20.544H159V26.8968Z" fill="white"/>
<path d="M59.3771 40.9705C59.3771 40.2682 59.9462 39.6993 60.6484 39.6993H62.0059C62.708 39.6993 63.2786 40.2682 63.2786 40.9705V41.0697C63.2786 41.772 62.708 42.3409 62.0059 42.3409H60.6484C59.9462 42.3409 59.3771 41.772 59.3771 41.0697V40.9705ZM63.2786 47.873C63.2786 48.5817 62.7032 49.1573 61.9945 49.1573H60.6598C59.9511 49.1573 59.3771 48.5817 59.3771 47.873V47.7981C59.3771 47.0894 59.9511 46.514 60.6598 46.514H61.9945C62.7032 46.514 63.2786 47.0894 63.2786 47.7981V47.873ZM68.0191 41.242V39.9187C68.0191 37.6801 66.2049 35.866 63.9664 35.866H58.6634C56.4251 35.866 54.6107 37.6801 54.6107 39.9187V41.242C54.6107 42.9002 55.9536 44.243 57.61 44.243H57.5206C55.9144 44.243 54.6107 45.545 54.6107 47.1529V49.1311C54.6107 51.4608 56.4981 53.3481 58.8277 53.3481H63.8021C66.1317 53.3481 68.0191 51.4608 68.0191 49.1311V47.1529C68.0191 45.545 66.7154 44.243 65.1075 44.243H65.0181C66.6763 44.243 68.0191 42.9002 68.0191 41.242Z" fill="white"/>
<path d="M80.9004 46.7121C80.9004 47.881 79.9527 48.8304 78.7838 48.8304H78.2765C77.1078 48.8304 76.1601 47.881 76.1601 46.7121V41.5881C76.1601 40.4192 77.1078 39.4715 78.2765 39.4715H78.7838C79.9527 39.4715 80.9004 40.4192 80.9004 41.5881V46.7121ZM80.8044 35.5391H76.2673C73.5006 35.5391 71.257 37.7808 71.257 40.5477V48.1232C71.257 50.89 73.5006 53.1317 76.2673 53.1317H80.8044C83.5713 53.1317 85.8147 50.89 85.8147 48.1232V40.5477C85.8147 37.7808 83.5713 35.5391 80.8044 35.5391Z" fill="white"/>
<path d="M98.0001 46.7121C98.0001 47.881 97.0524 48.8304 95.8835 48.8304H95.3763C94.2075 48.8304 93.2598 47.881 93.2598 46.7121V41.5881C93.2598 40.4192 94.2075 39.4715 95.3763 39.4715H95.8835C97.0524 39.4715 98.0001 40.4192 98.0001 41.5881V46.7121ZM97.9042 35.5391H93.367C90.6003 35.5391 88.3569 37.7808 88.3569 40.5477V48.1232C88.3569 50.89 90.6003 53.1317 93.367 53.1317H97.9042C100.671 53.1317 102.914 50.89 102.914 48.1232V40.5477C102.914 37.7808 100.671 35.5391 97.9042 35.5391Z" fill="white"/>
<path d="M115.1 46.7121C115.1 47.881 114.152 48.8304 112.983 48.8304H112.476C111.307 48.8304 110.36 47.881 110.36 46.7121V41.5881C110.36 40.4192 111.307 39.4715 112.476 39.4715H112.983C114.152 39.4715 115.1 40.4192 115.1 41.5881V46.7121ZM115.004 35.5391H110.467C107.7 35.5391 105.456 37.7808 105.456 40.5477V48.1232C105.456 50.89 107.7 53.1317 110.467 53.1317H115.004C117.771 53.1317 120.014 50.89 120.014 48.1232V40.5477C120.014 37.7808 117.771 35.5391 115.004 35.5391Z" fill="white"/>
<path d="M95.1928 18.6158L98.5814 14.697L108.847 27.7986H102.26L95.1928 18.6158ZM85.2012 22.7704L80.863 17.1487L72.7136 27.7986H65.6454L80.7269 8.84731L88.4901 18.6712L85.2012 22.7704ZM98.7016 5.62189L91.9229 14.2048L80.575 3.8147e-06L54.6107 33.2084L75.344 33.2558L80.996 25.942L85.1252 31.4767L91.9593 23.0394L99.9646 33.2084H120.014L98.7016 5.62189Z" fill="white"/>
</svg>
