<?xml version="1.0" encoding="utf-8"?>
<!-- Generator: Adobe Illustrator 25.1.0, SVG Export Plug-In . SVG Version: 6.00 Build 0)  -->
<svg version="1.1" id="Layer_1" xmlns="http://www.w3.org/2000/svg" xmlns:xlink="http://www.w3.org/1999/xlink" x="0px" y="0px"
	 viewBox="0 0 1440 18" style="enable-background:new 0 0 1440 18;" xml:space="preserve">
<style type="text/css">
	.st0{fill:#10577C;}
	.st1{fill:#12587B;}
</style>
<path class="st0" d="M1440,18V7.6c0-3.7-23.3,0.1-39.1-3.4c-11.1-2.5-22.5-1.2-33.7-0.7c-7,0.3-14,2-21,3.3
	c-11.1,2.1-16.4,1-33.1-0.8c-20.6-2.2-9.1-3.7-12.7-2.4c-10.6,3.8-23.3,7.8-31.7,1.9c-8-5.6-8.1,0.9-12.2,2.3
	c-6.1,2.1-12-4.2-18.1-4c-14.1,0.6-24.8-2.6-38.8-1c-25.9,2.8-38.5-2.9-64.3,1.8c-5.8,1.1-3.6,2.1-31.6,3.3c-23.7,1-39.9-2.3-63.2-4
	c-11.2-0.8-35.5,4.3-46.4,0c-15.5-6.1-31.4,5.3-42.7,4c-12.1-1.4,4.3,2.3-9.5-3.3c-13.8-5.6-22.9,3.1-37,3.3
	c-10.4,0.1-20.8-2.9-31.2-4.8c-1-0.2-1.9-1.9-2.9-2.3c-3.3-1.4-6.7,1.4-10.1,1.4c-8.4,0.1-17.2,4.7-25,1
	c-12.1-5.8-23.7-2.8-35.5-0.9c-11.2,1.8-22.3-0.6-33.4,2.1c-11.5,2.9-22.8,1.6-34.3-2.2c-6.8-2.3-4.6,2.2-12.5-1.5V18H1440z"/>
<path class="st1" d="M1440,18V7.6c0-3.7-23.3,0.1-39.1-3.4c-11.1-2.5-22.5-1.2-33.7-0.7c-7,0.3-14,2-21,3.3
	c-11.1,2.1-16.4,1-33.1-0.8c-20.6-2.2-9.1-3.7-12.7-2.4c-10.6,3.8-23.3,7.8-31.7,1.9c-8-5.6-8.1,0.9-12.2,2.3
	c-6.1,2.1-12-4.2-18.1-4c-14.1,0.6-24.8-2.6-38.8-1c-25.9,2.8-38.5-2.9-64.3,1.8c-5.8,1.1-3.6,2.1-31.6,3.3c-23.7,1-39.9-2.3-63.2-4
	c-11.2-0.8-35.5,4.3-46.4,0c-15.5-6.1-31.4,5.3-42.7,4c-12.1-1.4,4.3,2.3-9.5-3.3c-13.8-5.6-22.9,3.1-37,3.3
	c-10.4,0.1-20.8-2.9-31.2-4.8c-1-0.2-1.9-1.9-2.9-2.3c-3.3-1.4-6.7,1.4-10.1,1.4c-8.4,0.1-17.2,4.7-25,1
	c-12.1-5.8-23.7-2.8-35.5-0.9c-11.2,1.8-22.3-0.6-33.4,2.1c-11.5,2.9-22.8,1.6-34.3-2.2c-6.8-2.3-4.6,2.2-12.5-1.5V18H1440z"/>
<path class="st0" d="M0,18V7.6c0-3.7,23.3,0.1,39.1-3.4C50.2,1.8,61.5,3,72.8,3.5c7,0.3,14,2,21,3.3c11.1,2.1,16.4,1,33.1-0.8
	c20.6-2.2,9.1-3.7,12.7-2.4c10.6,3.8,23.3,7.8,31.7,1.9c8-5.6,8.1,0.9,12.2,2.3c6.1,2.1,12-4.2,18.1-4c14.1,0.6,24.8-2.6,38.8-1
	c25.9,2.8,38.5-2.9,64.3,1.8c5.8,1.1,3.6,2.1,31.6,3.3c23.7,1,39.9-2.3,63.2-4c11.2-0.8,35.5,4.3,46.4,0c15.5-6.1,31.4,5.3,42.7,4
	c12.1-1.4-4.3,2.3,9.5-3.3c13.8-5.6,22.9,3.1,37,3.3c10.4,0.1,20.8-2.9,31.2-4.8c1-0.2,1.9-1.9,2.9-2.3c3.3-1.4,6.7,1.4,10.1,1.4
	c8.4,0.1,17.2,4.7,25,1c12.1-5.8,23.7-2.8,35.5-0.9c11.2,1.8,22.3-0.6,33.4,2.1c11.5,2.9,22.8,1.6,34.3-2.2
	c6.8-2.3,4.6,2.2,12.5-1.5V18H0z"/>
<path class="st1" d="M0,18V7.6c0-3.7,23.3,0.1,39.1-3.4C50.2,1.8,61.5,3,72.8,3.5c7,0.3,14,2,21,3.3c11.1,2.1,16.4,1,33.1-0.8
	c20.6-2.2,9.1-3.7,12.7-2.4c10.6,3.8,23.3,7.8,31.7,1.9c8-5.6,8.1,0.9,12.2,2.3c6.1,2.1,12-4.2,18.1-4c14.1,0.6,24.8-2.6,38.8-1
	c25.9,2.8,38.5-2.9,64.3,1.8c5.8,1.1,3.6,2.1,31.6,3.3c23.7,1,39.9-2.3,63.2-4c11.2-0.8,35.5,4.3,46.4,0c15.5-6.1,31.4,5.3,42.7,4
	c12.1-1.4-4.3,2.3,9.5-3.3c13.8-5.6,22.9,3.1,37,3.3c10.4,0.1,20.8-2.9,31.2-4.8c1-0.2,1.9-1.9,2.9-2.3c3.3-1.4,6.7,1.4,10.1,1.4
	c8.4,0.1,17.2,4.7,25,1c12.1-5.8,23.7-2.8,35.5-0.9c11.2,1.8,22.3-0.6,33.4,2.1c11.5,2.9,22.8,1.6,34.3-2.2
	c6.8-2.3,4.6,2.2,12.5-1.5V18H0z"/>
</svg>
