<svg width="1440" height="40" viewBox="0 0 1440 40" fill="none" xmlns="http://www.w3.org/2000/svg">
<path fill-rule="evenodd" clip-rule="evenodd" d="M0 27.9179C0 30.1252 0 32.3331 0 34.5404C479.917 34.398 960.754 34.8251 1440 34.3268C1440 28.9148 1440 23.5026 1440 18.0909C1431.82 17.4505 1424.74 19.4988 1417.46 20.6545C1402.49 23.0291 1384.41 23.1755 1368.21 24.4998C1359.97 25.1733 1351.61 26.476 1343.58 26.4226C1339.38 26.3947 1335.8 25.6252 1331.9 25.1408C1320.65 23.7444 1307.16 24.2632 1295.17 23.4316C1283.56 22.6273 1273.48 19.5255 1262.19 18.3045C1256.31 17.6686 1249.77 17.6742 1243.41 17.0227C1230.34 15.6841 1217.12 16.6441 1202.92 16.1681C1196.44 15.9506 1189.93 15.2488 1183.3 15.1C1169.41 14.7874 1155.32 15.3136 1141.15 15.3136C1127.1 15.3136 1113.41 14.4477 1099.41 14.6728C1085.91 14.8896 1072.37 13.6782 1058.5 13.8182C1052.18 13.8824 1046.08 14.7431 1039.72 15.1001C1025.92 15.8761 1013.86 16.5513 1001.74 17.8773C995.02 18.6126 988.131 20.0972 980.869 20.0138C968.525 19.8716 954.922 19.632 943.304 18.3047C937.817 17.6778 932.734 16.661 927.444 15.9549C921.728 15.1916 915.935 14.7772 909.913 14.2458C898.856 13.27 888.489 11.3602 877.774 9.75963C866.142 8.02186 854.048 7.83555 842.713 6.55509C837.288 5.94215 832.376 4.53014 827.687 2.92335C818.526 -0.216822 811.636 -0.182195 798.47 0.1462C793.849 0.261186 788.889 0.0754405 784.696 0.359799C768.438 1.46204 753.95 4.95131 737.113 5.05971C709.996 5.23417 680.448 3.43863 657.392 6.98247C642.777 9.22874 627.937 11.9417 614.818 14.4595C608.155 15.7385 600.868 17.1938 593.531 18.0913C585.902 19.0241 577.225 19.0394 568.488 19.8003C551.981 21.2377 534.655 22.3819 516.731 20.6548C493.198 18.3875 466.62 16.9124 441.601 15.5277C432.642 15.0316 423.46 15.0311 414.47 14.6731C396.759 13.9678 379.362 12.1109 361.879 12.5368C343.818 12.977 326.118 12.9935 308.453 14.2458C292.084 15.4062 275.603 16.7318 259.2 18.0913C226.427 20.8078 195.206 24.6739 161.113 26.2093C143.77 26.9905 126.537 28.2552 109.774 28.9865C92.2915 29.7492 72.8268 29.4139 53.8446 29.4139C45.1044 29.4139 35.1703 29.5497 26.296 28.9865C17.6176 28.4355 6.78748 27.2239 0 27.9179Z" fill="white"/>
<path d="M1440 29.4915H0V40H1440V29.4915Z" fill="white"/>
</svg>
