<svg width="33" height="33" viewBox="0 0 33 33" fill="none" xmlns="http://www.w3.org/2000/svg">
<g clip-path="url(#clip0_3142_14677)">
<path d="M1.81422 32.3754H1.31438C0.454437 31.8543 0.391993 31.2832 1.11604 30.5589C2.75062 28.9239 4.38435 27.288 6.02282 25.6568C6.10076 25.5792 6.22103 25.5442 6.32341 25.4883C5.33132 24.3805 4.60028 23.2603 4.05877 22.0199C2.94635 19.4719 2.62306 16.8212 3.05912 14.0794C3.48881 11.3777 4.57334 8.97495 6.47683 6.9954C8.20891 5.19411 10.0033 3.45285 11.7667 1.6815C12.0511 1.39577 12.3817 1.28882 12.7625 1.40072C13.1504 1.51473 13.3486 1.80983 13.4253 2.19583C13.5328 2.73644 13.6403 3.27708 13.7503 3.8172C13.8461 4.28795 13.9454 4.758 14.0432 5.22836C14.0748 5.2411 14.1064 5.25384 14.138 5.26658C14.2066 5.17466 14.265 5.07269 14.3451 4.99231C15.7568 3.57618 17.1727 2.16434 18.5834 0.74728C18.8774 0.452014 19.2029 0.29349 19.6218 0.42865C20.0383 0.563022 20.227 0.876392 20.2879 1.28854C20.3563 1.75172 20.4256 2.21476 20.4959 2.67765C20.594 3.323 20.6934 3.96815 20.7927 4.61644C20.8449 4.60345 20.8683 4.6037 20.8838 4.59271C20.9602 4.5385 21.0345 4.48143 21.1094 4.42514C22.4717 3.40118 23.9609 2.63615 25.6215 2.22642C27.1085 1.85954 28.6036 1.80162 30.1067 2.13015C30.5719 2.23184 30.873 2.49662 30.9434 2.97811C31.011 3.44059 31.0961 3.90447 31.1123 4.36987C31.2105 7.18732 30.2371 9.64909 28.5814 11.8781C28.511 11.9728 28.4409 12.0676 28.355 12.1835C28.4489 12.2098 28.4974 12.2291 28.5477 12.2367C29.5453 12.3884 30.5408 12.5569 31.5417 12.6816C32.0552 12.7455 32.4264 12.9487 32.6172 13.4399V13.8774C32.451 14.0994 32.308 14.3444 32.1148 14.5397C30.745 15.9239 29.3659 17.2991 27.9851 18.6724C27.9077 18.7494 27.788 18.7838 27.688 18.8381C27.7183 18.875 27.7487 18.9119 27.7791 18.9488C27.8268 18.9645 27.8734 18.9852 27.9222 18.9951C28.8597 19.1858 29.8004 19.3621 30.733 19.5738C30.9737 19.6285 31.2354 19.7471 31.4069 19.9174C31.7714 20.2794 31.7058 20.8379 31.2931 21.2517C29.6972 22.8518 28.0862 24.437 26.5033 26.0499C24.3791 28.2144 21.8164 29.5101 18.8283 29.9516C15.1749 30.4913 11.7924 29.7759 8.73598 27.6633C8.33663 27.3872 7.96684 27.0684 7.53338 26.7304C7.46529 26.8201 7.4053 26.9211 7.32488 27.0017C5.74374 28.5871 4.16306 30.173 2.57405 31.7505C2.34234 31.9805 2.06854 32.1681 1.81422 32.3754ZM18.6993 3.36386C18.6656 3.34768 18.6318 3.3315 18.598 3.31532C18.5372 3.39971 18.4866 3.49426 18.4141 3.56698C17.0169 4.96817 15.6165 6.36608 14.2186 7.76658C13.9428 8.04295 13.6314 8.19441 13.2346 8.08107C12.8306 7.96567 12.6164 7.68659 12.5427 7.28136C12.4925 7.00522 12.4297 6.73137 12.3734 6.45631C12.2225 5.71923 12.0721 4.98204 11.9144 4.20988C11.8392 4.27309 11.7982 4.30259 11.763 4.33784C10.5486 5.55318 9.31588 6.75088 8.12439 7.9883C4.57708 11.6724 3.73373 16.9654 5.94283 21.5764C6.37547 22.4795 6.92052 23.3116 7.59417 24.0848C8.74343 22.9334 9.87246 21.7955 11.0118 20.6681C11.175 20.5066 11.2327 20.3474 11.2277 20.1206C11.1871 18.2778 11.1565 16.4348 11.1297 14.5918C11.121 13.9919 11.5202 13.5657 12.0672 13.5654C12.6057 13.5651 12.9912 13.9729 13.0021 14.5618C13.0236 15.728 13.0421 16.8941 13.0612 18.0603C13.0636 18.2124 13.0615 18.3646 13.0615 18.5843C13.1883 18.4699 13.2645 18.4069 13.3341 18.3374C14.5789 17.0934 15.8185 15.8443 17.0713 14.6086C17.2656 14.417 17.3472 14.2211 17.3522 13.9546C17.3706 12.976 17.4006 11.9975 17.4374 11.0194C17.4575 10.487 17.8759 10.1036 18.3971 10.1148C18.8995 10.1257 19.2909 10.5197 19.3064 11.0392C19.3123 11.2368 19.299 11.4348 19.2974 11.6326C19.2955 11.8621 19.2969 12.0915 19.2969 12.3209C19.3219 12.3362 19.3468 12.3514 19.3718 12.3667C19.4408 12.2752 19.5003 12.1744 19.5802 12.0938C20.2033 11.4653 20.8229 10.8329 21.4585 10.2171C21.9861 9.7059 22.8149 9.89777 23.0247 10.5723C23.1479 10.9682 23.0259 11.3049 22.7341 11.594C22.0536 12.2682 21.3783 12.9477 20.7015 13.6257C20.6351 13.6922 20.5734 13.7634 20.4809 13.8634C20.9617 13.8853 21.3777 13.8955 21.7924 13.9258C22.2002 13.9556 22.5058 14.2062 22.6211 14.5771C22.8225 15.2249 22.3326 15.8102 21.6021 15.7877C20.6969 15.7598 19.7919 15.719 18.8864 15.7025C18.7509 15.7 18.5776 15.7628 18.4823 15.8568C17.2077 17.1149 15.9435 18.3836 14.6782 19.6511C14.6263 19.703 14.588 19.7684 14.5254 19.8513C14.6973 19.8513 14.822 19.8529 14.9467 19.8511C16.1854 19.8333 17.4241 19.8086 18.663 19.7996C19.2151 19.7955 19.5957 20.1502 19.6246 20.6577C19.6558 21.2035 19.3347 21.5848 18.7734 21.6591C18.6399 21.6768 18.5034 21.6749 18.3682 21.6769C16.5257 21.7036 14.6831 21.7275 12.8407 21.7599C12.7164 21.7621 12.5554 21.7884 12.4751 21.8678C11.2905 23.0384 10.1167 24.2199 8.92217 25.417C9.04776 25.5241 9.16234 25.6276 9.28284 25.7236C11.3873 27.4011 13.8021 28.2172 16.4765 28.2463C19.552 28.2799 22.3116 27.3606 24.5946 25.2648C26.0201 23.9563 27.3483 22.5418 28.7189 21.1735C28.7378 21.1546 28.7394 21.1183 28.7537 21.0766C27.7582 20.8747 26.7713 20.6702 25.7824 20.4761C25.3635 20.3938 25.0429 20.2073 24.9176 19.7717C24.795 19.3457 24.9781 19.0317 25.2697 18.7415C26.6573 17.3606 28.0385 15.9733 29.4263 14.5927C29.5055 14.5139 29.623 14.4736 29.7227 14.4154C29.5714 14.2991 29.5035 14.2731 29.4332 14.2624C28.4461 14.1121 27.4594 13.959 26.471 13.8174C26.0565 13.758 25.735 13.5821 25.5971 13.17C25.4605 12.7616 25.5982 12.4272 25.8902 12.1218C26.2567 11.7385 26.6203 11.3484 26.9446 10.9298C28.4704 8.96059 29.3627 6.77037 29.2434 4.23145C29.2301 3.94856 29.1436 3.83459 28.8498 3.81473C27.4769 3.72193 26.1532 3.92297 24.8729 4.42286C23.3245 5.02742 22.0113 5.98168 20.8368 7.14093C20.5519 7.42211 20.2191 7.52635 19.8377 7.40386C19.4382 7.27552 19.2452 6.97059 19.1872 6.56701C19.122 6.11397 19.0559 5.66104 18.9867 5.2086C18.8927 4.59342 18.7953 3.97875 18.6993 3.36386Z" fill="#27AAE2"/>
</g>
<defs>
<clipPath id="clip0_3142_14677">
<rect width="33" height="33" fill="white"/>
</clipPath>
</defs>
</svg>
