<svg width="19" height="20" viewBox="0 0 19 20" fill="none" xmlns="http://www.w3.org/2000/svg">
<g clip-path="url(#clip0_3745_4075)">
<path d="M10.1449 19.8861H8.99323C8.8756 19.8705 8.75826 19.853 8.64046 19.8395C6.8194 19.6293 5.18636 18.933 3.77051 17.7088C2.00532 16.1827 0.904139 14.2345 0.497035 11.863C0.436584 11.5108 0.402014 11.1538 0.355469 10.7989C0.355469 10.3951 0.355469 9.99122 0.355469 9.58734C0.382293 9.35655 0.404685 9.1251 0.43662 8.89516C0.771606 6.48273 1.79814 4.45466 3.55804 2.87093C5.78321 0.868486 8.37118 0.114049 11.2476 0.669364C16.44 1.67182 19.7385 7.04128 18.53 12.4436C17.6978 16.1635 14.7246 19.1066 11.1559 19.7386C10.8206 19.7979 10.482 19.8374 10.1449 19.8861ZM17.7028 10.1949C17.7044 5.47816 14.0495 1.63352 9.56628 1.63613C5.08871 1.63874 1.44498 5.46811 1.43528 10.1814C1.42558 14.8932 5.07827 18.7443 9.56248 18.7501C14.0439 18.7559 17.7012 14.9122 17.7028 10.1949Z" fill="#27AAE2"/>
<path d="M9.02989 8.48675C9.02989 7.93796 9.02869 7.38917 9.0303 6.84038C9.03139 6.47384 9.25594 6.2176 9.57059 6.21826C9.88501 6.21893 10.1084 6.47493 10.1089 6.84263C10.1103 7.82032 10.1119 8.79814 10.1066 9.77584C10.1058 9.90717 10.1443 9.99687 10.2314 10.088C11.1965 11.0977 12.1603 12.1088 13.1169 13.1274C13.2169 13.2338 13.304 13.3818 13.3353 13.5254C13.3845 13.7511 13.2884 13.9484 13.0992 14.0752C12.9041 14.206 12.7014 14.2015 12.5076 14.0674C12.4482 14.0263 12.397 13.9709 12.3463 13.9177C11.3241 12.8432 10.3044 11.7659 9.27879 10.6951C9.10526 10.5139 9.0212 10.3167 9.02661 10.0574C9.03749 9.53408 9.02984 9.01032 9.02989 8.48675Z" fill="#27AAE2"/>
<path d="M10.1084 3.9581C10.1084 4.14056 10.1121 4.32311 10.1076 4.50545C10.0993 4.83737 9.86131 5.0852 9.56105 5.08048C9.26782 5.07588 9.03527 4.83074 9.03061 4.50794C9.02519 4.13053 9.02462 3.75288 9.03089 3.3755C9.03625 3.05462 9.27415 2.81074 9.56762 2.81006C9.86062 2.80938 10.0974 3.05276 10.1072 3.37302C10.1131 3.56786 10.1083 3.76306 10.1084 3.9581Z" fill="#27AAE2"/>
<path d="M3.63067 9.62516C3.81008 9.62516 3.98961 9.62092 4.16888 9.62613C4.47507 9.63498 4.70724 9.8791 4.70969 10.188C4.71213 10.4968 4.48194 10.7518 4.17791 10.7584C3.81325 10.7662 3.44821 10.7662 3.08356 10.7584C2.78069 10.752 2.54943 10.4958 2.55178 10.188C2.55412 9.88007 2.78717 9.63492 3.09245 9.62613C3.27173 9.62092 3.45125 9.62516 3.63067 9.62516Z" fill="#27AAE2"/>
<path d="M15.4966 10.7611C15.3232 10.7611 15.1497 10.7648 14.9764 10.7602C14.6611 10.752 14.4252 10.5023 14.4288 10.1863C14.4323 9.87859 14.6658 9.6321 14.9716 9.62714C15.3303 9.62126 15.6893 9.62077 16.048 9.62726C16.3539 9.63283 16.5855 9.88174 16.5867 10.1908C16.5879 10.4998 16.3574 10.7492 16.0527 10.7597C15.8676 10.7661 15.682 10.7609 15.4966 10.7611Z" fill="#27AAE2"/>
<path d="M10.1084 16.4537C10.1084 16.6361 10.1122 16.8188 10.1076 17.0011C10.0992 17.3328 9.86079 17.5806 9.56059 17.5756C9.26742 17.5707 9.03521 17.3255 9.03061 17.0026C9.02525 16.6252 9.02456 16.2475 9.0309 15.8701C9.03631 15.5494 9.27461 15.3056 9.56808 15.3052C9.86108 15.3048 10.0975 15.5482 10.1072 15.8686C10.1131 16.0635 10.1083 16.2587 10.1084 16.4537Z" fill="#27AAE2"/>
<path d="M14.6844 15.0146C14.6835 15.3325 14.4498 15.5762 14.1472 15.575C13.8484 15.5738 13.6077 15.3209 13.6094 15.0097C13.6111 14.7025 13.8604 14.4425 14.1517 14.4439C14.4484 14.4453 14.6854 14.6992 14.6844 15.0146Z" fill="#27AAE2"/>
<path d="M4.45315 5.36664C4.45612 5.05028 4.69265 4.80858 4.9959 4.81205C5.29531 4.81547 5.53402 5.07138 5.52803 5.38252C5.52208 5.69136 5.27099 5.94853 4.98064 5.94315C4.68294 5.93762 4.45018 5.68324 4.45315 5.36664Z" fill="#27AAE2"/>
<path d="M14.1577 4.81059C14.4567 4.81429 14.6891 5.06609 14.6853 5.38247C14.6817 5.6941 14.434 5.94977 14.1419 5.94347C13.8515 5.93719 13.6031 5.6683 13.6085 5.36608C13.614 5.05737 13.8616 4.80691 14.1577 4.81059Z" fill="#27AAE2"/>
<path d="M4.99608 15.5757C4.69627 15.5792 4.45642 15.3335 4.45316 15.0195C4.44991 14.7068 4.68753 14.4474 4.98184 14.4425C5.26945 14.4375 5.52444 14.6991 5.52978 15.0045C5.53517 15.3126 5.29266 15.5721 4.99608 15.5757Z" fill="#27AAE2"/>
</g>
<defs>
<clipPath id="clip0_3745_4075">
<rect width="19" height="20" fill="white"/>
</clipPath>
</defs>
</svg>
