<svg width="20" height="20" viewBox="0 0 20 20" fill="none" xmlns="http://www.w3.org/2000/svg">
<path fill-rule="evenodd" clip-rule="evenodd" d="M9.9218 1.66117C11.1415 1.64585 12.3421 1.96548 13.3927 2.58525C14.4434 3.20502 15.3039 4.10118 15.8804 5.17614C16.457 6.25109 16.7276 7.46364 16.6628 8.68175C16.6002 9.85791 16.2271 10.9957 15.5826 11.9798C15.5532 12.0401 15.5163 12.0975 15.4719 12.1503L15.3821 12.2575C15.2337 12.4605 15.0741 12.6551 14.9041 12.8403L10.6441 18.0286C10.486 18.2213 10.2499 18.333 10.0007 18.3332C9.75143 18.3333 9.5152 18.2219 9.35677 18.0295L4.9849 12.72C4.98437 12.7193 4.98384 12.7187 4.98331 12.7181C4.89675 12.6142 4.81102 12.5079 4.72623 12.4003L4.61463 12.265C4.57161 12.2128 4.53571 12.1564 4.50711 12.0972C3.84702 11.1344 3.45076 10.0144 3.3593 8.84885C3.26387 7.63276 3.50393 6.4138 4.05333 5.3247C4.60273 4.2356 5.44042 3.31811 6.47517 2.67214C7.50992 2.02617 8.70207 1.67649 9.9218 1.66117ZM5.98902 11.312L6.01804 11.3472L6.02981 11.3618C6.10926 11.4627 6.1877 11.5599 6.26527 11.653L6.26841 11.6568L6.2684 11.6568L9.99917 16.1877L13.631 11.7644C13.6414 11.7517 13.6522 11.7393 13.6633 11.7273C13.8015 11.5779 13.9307 11.4203 14.05 11.2554C14.0617 11.2393 14.0738 11.2237 14.0866 11.2085L14.1218 11.1666C14.1263 11.1594 14.131 11.1523 14.1359 11.1452C14.6515 10.3894 14.9498 9.50672 14.9985 8.59314C15.0471 7.67956 14.8442 6.77015 14.4117 5.96393C13.9793 5.15771 13.3339 4.48559 12.5459 4.02076C11.758 3.55594 10.8575 3.31621 9.94274 3.32771C9.02794 3.3392 8.13382 3.60146 7.35776 4.08593C6.5817 4.57041 5.95343 5.25853 5.54138 6.07535C5.12933 6.89218 4.94929 7.8064 5.02086 8.71847C5.09243 9.63054 5.41287 10.5055 5.94729 11.248C5.96226 11.2688 5.97617 11.2902 5.98902 11.312ZM10.0001 6.66649C9.07961 6.66649 8.33342 7.41269 8.33342 8.33316C8.33342 9.25364 9.07961 9.99983 10.0001 9.99983C10.9206 9.99983 11.6668 9.25364 11.6668 8.33316C11.6668 7.41269 10.9206 6.66649 10.0001 6.66649ZM6.66675 8.33316C6.66675 6.49221 8.15914 4.99983 10.0001 4.99983C11.841 4.99983 13.3334 6.49221 13.3334 8.33316C13.3334 10.1741 11.841 11.6665 10.0001 11.6665C8.15914 11.6665 6.66675 10.1741 6.66675 8.33316Z" fill="#27AAE2"/>
</svg>
