<svg width="33" height="32" viewBox="0 0 33 32" fill="none" xmlns="http://www.w3.org/2000/svg">
<g clip-path="url(#clip0_3142_14675)">
<path d="M32.6172 16.1913C32.5622 16.4122 32.5206 16.6374 32.4501 16.8532C31.9306 18.4427 30.7611 19.2982 29.2001 19.6902C27.7516 20.054 26.285 19.9953 24.8252 19.7885C23.4765 19.5974 22.1349 19.3556 20.7908 19.133C20.0457 19.0096 19.572 18.3836 19.6912 17.6888C19.8122 16.9835 20.453 16.5526 21.1933 16.6712C22.6206 16.8998 24.0457 17.1459 25.4774 17.343C26.532 17.4882 27.6009 17.5396 28.6393 17.2441C29.0163 17.1369 29.4022 16.9434 29.6961 16.688C30.2249 16.2285 30.2557 15.5355 29.8395 14.9714C29.6924 14.7721 29.5065 14.6003 29.3309 14.4232C28.4533 13.5381 28.1197 12.4833 28.3332 11.2553C28.351 11.1529 28.3677 11.0502 28.3818 10.9472C28.5385 9.80024 27.7152 9.05461 26.5706 9.2914C26.2803 9.35144 25.9719 9.41239 25.684 9.37608C25.1405 9.30751 24.7408 8.83212 24.6859 8.28558C24.6333 7.76147 24.9301 7.21569 25.4301 7.02878C28.0337 6.05537 30.4906 7.70751 30.8192 9.78915C30.9082 10.3537 30.8802 10.9517 30.8086 11.5221C30.7441 12.036 30.8323 12.4212 31.2224 12.7785C31.9288 13.4256 32.4333 14.2029 32.5681 15.1792C32.5718 15.2058 32.6003 15.2289 32.6172 15.2537V16.1913Z" fill="#27AAE2"/>
<path d="M3.47561 24.569C3.48813 23.5878 4.12075 22.4953 5.06463 21.5506C6.14584 20.4685 7.44773 19.7062 8.79319 19.0131C9.76414 18.5129 10.746 18.0339 11.7254 17.5502C12.4154 17.2093 13.1417 17.4223 13.469 18.0535C13.8025 18.6966 13.5441 19.4209 12.8464 19.782C11.4702 20.4942 10.0807 21.1819 8.71944 21.9215C7.82904 22.4052 7.01094 23.0031 6.39298 23.8294C6.06153 24.2726 5.88252 24.7605 6.02876 25.3213C6.20602 26.0011 6.72312 26.2514 7.35316 26.3182C8.37172 26.4263 9.2457 26.8082 9.88779 27.6254C10.0915 27.8846 10.2526 28.1818 10.4043 28.4766C11.0192 29.6716 12.1779 29.7936 13.021 28.7326C13.3677 28.2964 13.7815 28.0511 14.3455 28.171C15.2367 28.3605 15.6374 29.3466 15.1207 30.0986C13.4856 32.4784 9.91429 32.7063 8.37611 29.9529C7.92534 29.146 7.89194 28.9263 6.66184 28.7256C4.74331 28.4125 3.46955 26.8326 3.47561 24.569Z" fill="#27AAE2"/>
<path d="M23.2964 5.14113C23.2659 6.42628 22.8822 7.76744 22.2895 9.03607C21.6077 10.4952 20.8538 11.9213 20.1075 13.3494C19.7819 13.9723 19.0439 14.1731 18.4396 13.8575C17.8297 13.539 17.5954 12.8102 17.9193 12.1674C18.5743 10.8672 19.2598 9.58214 19.8988 8.27426C20.3193 7.41349 20.6475 6.51309 20.7729 5.55288C20.8345 5.08174 20.8207 4.61706 20.6294 4.17271C20.316 3.44468 19.6613 3.1544 18.9186 3.4185C18.7529 3.47743 18.5914 3.55362 18.437 3.63838C17.2663 4.28122 16.0968 4.28787 14.9253 3.64285C14.8706 3.61275 14.8145 3.58541 14.7587 3.55736C13.6432 2.99617 12.6163 3.60449 12.5517 4.86117C12.5427 5.03656 12.5309 5.21758 12.4807 5.38403C12.3114 5.94584 11.72 6.31778 11.1477 6.24085C10.5526 6.16084 10.0934 5.67914 10.0529 5.09244C9.9161 3.10695 11.4024 1.19346 13.3609 0.855949C14.281 0.697377 15.1502 0.913437 15.9452 1.36434C16.4561 1.65409 16.8856 1.64098 17.4027 1.36567C19.494 0.252266 21.767 0.910137 22.8208 2.89803C23.1363 3.49308 23.2993 4.21563 23.2964 5.14113Z" fill="#27AAE2"/>
<path d="M29.934 24.9079C29.9245 26.9392 28.4785 28.5222 26.3935 28.7495C25.8594 28.8077 25.5288 29.0447 25.299 29.5334C24.7031 30.8006 23.7735 31.69 22.3323 31.8964C20.8262 32.1122 19.5861 31.5824 18.6098 30.4428C17.7369 29.4239 17.2321 28.2052 16.9486 26.9178C16.6157 25.4061 16.3886 23.8711 16.1176 22.3459C16.0775 22.1206 16.05 21.8931 16.0135 21.6671C15.8907 20.9074 16.3283 20.2611 17.0475 20.1421C17.7496 20.0259 18.3659 20.5316 18.4922 21.2866C18.7736 22.9683 19.0473 24.6521 19.3766 26.3247C19.5396 27.1523 19.8692 27.9357 20.3637 28.6344C20.8143 29.271 21.4355 29.5537 22.042 29.4155C22.541 29.3018 22.8171 28.9411 23.015 28.5178C23.3161 27.8739 23.7039 27.3105 24.2958 26.8978C24.8319 26.524 25.4353 26.3656 26.0705 26.2665C27.361 26.0651 27.8228 25.0085 27.1121 23.8995C26.8969 23.5637 26.7454 23.2233 26.8409 22.8146C26.9648 22.2842 27.2981 21.9497 27.8232 21.8423C28.3248 21.7396 28.7554 21.9089 29.0623 22.322C29.631 23.0877 29.9334 23.9484 29.934 24.9079Z" fill="#27AAE2"/>
<path d="M6.25218 6.68311C7.49534 6.70599 8.61734 7.25333 9.67559 7.96366C10.8845 8.77512 11.9112 9.79647 12.9275 10.828C13.4682 11.3768 14.0119 11.9229 14.5429 12.481C14.9497 12.9085 15.0343 13.4095 14.8088 13.8874C14.5875 14.3565 14.1058 14.6556 13.6059 14.6276C13.2308 14.6067 12.942 14.415 12.6837 14.1573C11.6445 13.1208 10.6185 12.0704 9.5558 11.0585C8.8001 10.3389 7.9689 9.70559 6.96797 9.35265C6.69856 9.25765 6.40126 9.19789 6.11674 9.19779C5.27164 9.19749 4.71092 9.84139 4.77227 10.6863C4.81422 11.2639 4.90007 11.8463 4.86298 12.4199C4.81371 13.1819 4.43355 13.8214 3.89962 14.3651C3.75384 14.5136 3.59972 14.6556 3.46807 14.8159C2.93497 15.4649 2.99728 16.2366 3.65169 16.7689C3.87204 16.9481 4.14892 17.066 4.41331 17.1813C5.04437 17.4566 5.36102 18.1135 5.14706 18.7431C4.93225 19.3752 4.27535 19.7217 3.61877 19.5493C1.83829 19.0819 0.547454 17.3667 0.620108 15.5318C0.662484 14.4616 1.10127 13.5476 1.88965 12.8369C2.34868 12.4232 2.46311 11.9957 2.35154 11.3967C2.0801 9.93953 2.41329 8.64397 3.57365 7.6418C4.31951 6.99761 5.19748 6.69095 6.25218 6.68311Z" fill="#27AAE2"/>
<path d="M16.7079 15.317C17.5482 15.3238 18.2428 16.0365 18.2382 16.8872C18.2337 17.7347 17.5275 18.4422 16.6886 18.4397C15.7899 18.4371 15.1069 17.7461 15.1193 16.8522C15.1316 15.9726 15.8175 15.3097 16.7079 15.317Z" fill="#27AAE2"/>
</g>
<defs>
<clipPath id="clip0_3142_14675">
<rect width="33" height="32" fill="white"/>
</clipPath>
</defs>
</svg>
