<svg width="33" height="33" viewBox="0 0 33 33" fill="none" xmlns="http://www.w3.org/2000/svg">
<g clip-path="url(#clip0_3142_14674)">
<path d="M32.6172 16.9529C32.4644 17.4785 32.3696 18.0302 32.1479 18.5249C31.5254 19.914 30.4722 20.8595 29.024 21.3532C28.9564 21.3763 28.8905 21.4043 28.8177 21.4323C29.8795 23.7568 29.7142 25.9357 27.8502 27.7499C26.047 29.505 23.9157 29.6323 21.6688 28.606C20.7856 30.9934 19.115 32.4076 16.5195 32.3701C14.0098 32.3337 12.3991 30.9264 11.5521 28.6069C9.27187 29.6417 7.11489 29.5001 5.30574 27.6912C3.4966 25.8824 3.35497 23.7257 4.38772 21.4507C1.936 20.5279 0.569328 18.8075 0.618468 16.1361C0.6536 14.2263 1.89672 12.1422 4.38658 11.3498C3.28441 8.8487 3.54285 6.56209 5.68117 4.74854C7.44744 3.25053 9.46559 3.20442 11.5604 4.18761C11.6214 4.02328 11.6767 3.84941 11.7492 3.68302C12.5475 1.85048 13.9231 0.755969 15.9056 0.438499C15.954 0.430747 15.9992 0.402803 16.0459 0.384277C16.4211 0.384277 16.7963 0.384277 17.1715 0.384277C17.2181 0.402801 17.2633 0.430461 17.3117 0.438537C19.4185 0.790031 20.8349 1.97197 21.5714 3.9738C21.5985 4.04731 21.6321 4.1184 21.6599 4.18406C23.7969 3.19096 25.844 3.25628 27.6246 4.82631C29.6857 6.64362 29.9172 8.89593 28.8254 11.3529C28.8923 11.378 28.959 11.4052 29.027 11.4284C30.4744 11.9221 31.5263 12.8681 32.1484 14.2562C32.37 14.7507 32.4646 15.3021 32.6172 15.8275V16.9529ZM5.92337 19.7528C6.11948 19.7687 6.32333 19.7559 6.51028 19.806C7.15062 19.9777 7.46748 20.8519 6.78458 21.4459C6.12217 22.022 5.74218 22.7452 5.64034 23.6297C5.37326 25.9494 7.47431 27.8321 9.75599 27.3014C10.503 27.1276 11.097 26.7193 11.614 26.1601C12.145 25.5858 12.9977 25.7758 13.1965 26.5005C13.2473 26.6858 13.2298 26.8925 13.2272 27.0892C13.205 28.7693 14.3864 30.2074 16.034 30.501C17.6588 30.7905 19.3044 29.8212 19.8078 28.2182C19.9537 27.7534 19.9477 27.2367 19.9805 26.7417C20.0198 26.1485 20.529 25.6973 21.0817 25.857C21.3235 25.9269 21.5526 26.117 21.7347 26.3039C22.6314 27.2244 23.7171 27.5592 24.9557 27.3057C27.3145 26.823 28.3938 23.985 26.9728 22.0398C26.7778 21.7728 26.5232 21.5499 26.3008 21.3024C25.833 20.7815 26.0461 19.9939 26.7144 19.8028C26.87 19.7582 27.0443 19.7629 27.2091 19.769C28.1141 19.8029 28.916 19.5418 29.5928 18.9354C30.6167 18.0178 30.9959 16.8663 30.65 15.5471C30.302 14.2205 29.4065 13.3805 28.0562 13.0838C27.6856 13.0023 27.2903 13.0354 26.9066 13.0114C26.5398 12.9885 26.2744 12.7991 26.1291 12.4707C25.9838 12.1423 26.0192 11.8171 26.2528 11.5327C26.3448 11.4206 26.4563 11.3243 26.56 11.222C27.4737 10.3204 27.7917 9.22635 27.5079 7.99172C27.2156 6.72023 26.3997 5.86874 25.1459 5.52735C23.8645 5.17843 22.715 5.48739 21.7681 6.45058C21.666 6.55448 21.5694 6.66611 21.4561 6.75635C21.1684 6.98547 20.8426 7.01511 20.516 6.86584C20.201 6.72189 20.0157 6.46373 19.9895 6.11124C19.978 5.9559 19.9886 5.79889 19.9896 5.64264C20 3.97193 18.7289 2.48483 17.1045 2.26713C15.3762 2.03551 13.7704 3.08314 13.3502 4.7568C13.2457 5.17338 13.2604 5.62136 13.2341 6.05574C13.2111 6.43609 13.0344 6.71575 12.6949 6.86784C12.3435 7.02531 12.0022 6.97791 11.7086 6.71166C11.6162 6.62788 11.5318 6.53515 11.4445 6.4458C10.5555 5.53609 9.46923 5.21876 8.24501 5.47945C6.01998 5.95327 4.9105 8.50519 6.07219 10.4645C6.29643 10.8427 6.63711 11.1527 6.9293 11.4897C7.38382 12.0139 7.15652 12.8101 6.4866 12.9825C6.30004 13.0305 6.09407 13.01 5.89705 13.0094C4.61099 13.0056 3.61588 13.5637 2.95168 14.641C2.26845 15.7492 2.24907 16.9251 2.9011 18.0535C3.56191 19.1971 4.58968 19.7701 5.92337 19.7528Z" fill="#27AAE2"/>
<path d="M25.5399 16.3977C25.4819 21.3873 21.5247 25.3215 16.5934 25.3088C11.5839 25.2959 7.67833 21.2787 7.68629 16.3673C7.69428 11.4393 11.715 7.46145 16.6082 7.46045C21.5068 7.45945 25.556 11.5112 25.5399 16.3977ZM23.6819 16.3953C23.6863 12.4944 20.5184 9.32254 16.6135 9.31814C12.712 9.31375 9.53966 12.4812 9.53527 16.3854C9.53088 20.2863 12.6988 23.4581 16.6037 23.4625C20.5052 23.4669 23.6775 20.2995 23.6819 16.3953Z" fill="#27AAE2"/>
<path d="M16.8978 21.5992C15.0465 21.767 12.9452 20.6262 12.0727 18.9991C11.8371 18.5595 11.9748 18.026 12.3911 17.7658C12.8095 17.5043 13.3458 17.5982 13.6304 18.0304C14.0346 18.6442 14.5242 19.1447 15.1974 19.4618C16.6238 20.1337 18.4072 19.6804 19.3278 18.4007C19.4068 18.291 19.4796 18.1765 19.5622 18.0696C19.8741 17.6657 20.3985 17.5738 20.8132 17.8473C21.2202 18.1158 21.3518 18.6563 21.0881 19.0863C20.5826 19.9104 19.9035 20.5579 19.0442 21.008C18.3628 21.3649 17.6402 21.577 16.8978 21.5992Z" fill="#27AAE2"/>
<path d="M10.7817 15.1405C10.8849 13.8425 11.8064 12.8812 13.1007 12.7213C14.3186 12.5708 15.4679 13.3218 15.8655 14.5327C15.9106 14.67 15.9366 14.8144 15.9626 14.9572C16.0586 15.4836 15.7488 15.9569 15.2426 16.0626C14.7566 16.1641 14.2837 15.8592 14.1687 15.347C14.0891 14.9923 13.9625 14.6849 13.5767 14.5827C13.0695 14.4482 12.6619 14.7713 12.6049 15.3464C12.5666 15.7321 12.3859 16.0186 12.023 16.1622C11.688 16.2947 11.3652 16.246 11.087 16.0111C10.8178 15.7838 10.7301 15.4845 10.7817 15.1405Z" fill="#27AAE2"/>
<path d="M22.4447 15.1797C22.4817 15.7546 22.144 16.1808 21.6117 16.2241C21.0787 16.2674 20.6711 15.9059 20.612 15.3374C20.5644 14.8806 20.2963 14.5826 19.909 14.556C19.4981 14.5279 19.207 14.7578 19.0875 15.2055C19.0741 15.2556 19.0625 15.3062 19.0497 15.3565C18.9235 15.851 18.4751 16.1529 17.9957 16.0663C17.5008 15.9769 17.1729 15.5166 17.2428 15.0095C17.4219 13.7089 18.4294 12.7719 19.7197 12.7056C20.972 12.6412 22.0758 13.4839 22.3876 14.7481C22.4221 14.8881 22.4264 15.0356 22.4447 15.1797Z" fill="#27AAE2"/>
</g>
<defs>
<clipPath id="clip0_3142_14674">
<rect width="33" height="33" fill="white"/>
</clipPath>
</defs>
</svg>
