<svg width="33" height="37" viewBox="0 0 33 37" fill="none" xmlns="http://www.w3.org/2000/svg">
<g clip-path="url(#clip0_3142_14676)">
<path d="M16.3315 36.6612C15.5968 36.3782 15.3417 35.8301 15.3632 35.0642C15.3959 33.8988 15.3717 32.7318 15.3717 31.5655C15.3717 31.4394 15.3717 31.3133 15.3717 31.1261C14.6255 31.5464 13.9449 31.9296 13.2644 32.313C12.9227 32.5056 12.5829 32.7019 12.239 32.8906C11.5114 33.2898 10.7786 33.1216 10.4138 32.4759C10.0608 31.8511 10.2967 31.1317 11.0034 30.7287C12.3665 29.9514 13.7335 29.1808 15.1019 28.4128C15.2675 28.3198 15.3777 28.2332 15.3769 28.0109C15.3681 25.595 15.3712 23.179 15.37 20.763C15.37 20.7176 15.3586 20.6722 15.3469 20.5843C15.2365 20.6366 15.144 20.6729 15.0589 20.7219C13.0193 21.8972 10.9818 23.0761 8.93933 24.2462C8.75108 24.3541 8.68032 24.4722 8.68395 24.693C8.70895 26.2161 8.72201 27.7394 8.72935 29.2628C8.73048 29.498 8.71764 29.7441 8.65029 29.9667C8.4841 30.5161 7.91081 30.8632 7.34163 30.7957C6.75255 30.7258 6.27851 30.2595 6.25748 29.6545C6.21947 28.5605 6.21776 27.4653 6.20164 26.3706C6.19937 26.2171 6.20133 26.0635 6.20133 25.8451C6.04707 25.9288 5.93606 25.9858 5.82812 26.0481C4.74701 26.6721 3.67074 27.3047 2.58424 27.9193C1.76079 28.385 0.871139 28.0343 0.656591 27.1786C0.516423 26.6195 0.766419 26.0931 1.35034 25.753C2.42903 25.1247 3.51188 24.5036 4.59259 23.8788C4.69312 23.8207 4.79075 23.7576 4.93888 23.6666C4.68449 23.5143 4.46509 23.3814 4.24415 23.251C3.41471 22.7617 2.58022 22.2806 1.75673 21.7814C1.27084 21.4869 1.03647 20.969 1.14488 20.4785C1.26415 19.9389 1.59471 19.5498 2.14039 19.4958C2.46751 19.4634 2.85506 19.5627 3.14611 19.7263C4.51401 20.4949 5.85927 21.3039 7.20851 22.1054C7.36665 22.1994 7.48201 22.2197 7.65555 22.1187C9.74134 20.9047 11.8334 19.7014 13.9235 18.4949C13.9643 18.4713 14.0016 18.4417 14.0755 18.3909C13.9924 18.3287 13.9281 18.2698 13.8544 18.2272C11.796 17.0371 9.73464 15.852 7.68054 14.6544C7.48329 14.5394 7.34985 14.5653 7.17004 14.6725C5.8323 15.4701 4.49009 16.2602 3.14658 17.0481C2.52867 17.4105 1.97711 17.3804 1.53251 16.9745C0.904793 16.4014 1.00685 15.4383 1.76876 14.972C2.69146 14.4072 3.6308 13.8697 4.56252 13.3198C4.67298 13.2546 4.78086 13.185 4.92833 13.0937C4.80419 13.013 4.71273 12.9474 4.61576 12.8914C3.52463 12.2609 2.43059 11.6354 1.34175 11.0009C0.773764 10.67 0.523496 10.1498 0.648828 9.60469C0.847152 8.74209 1.74565 8.36549 2.55829 8.82419C3.64532 9.43778 4.72151 10.0706 5.80279 10.6943C5.91365 10.7583 6.02755 10.817 6.1791 10.8993C6.18755 10.7388 6.19803 10.6146 6.20002 10.4903C6.21817 9.35996 6.21934 8.22903 6.25819 7.09939C6.27899 6.49465 6.75554 6.03121 7.34679 5.96317C7.91561 5.89771 8.489 6.248 8.65229 6.79717C8.71863 7.02025 8.73053 7.26621 8.72937 7.50158C8.72188 9.0249 8.69895 10.5482 8.69813 12.0715C8.69806 12.2053 8.78415 12.4012 8.89131 12.464C10.9842 13.6893 13.0861 14.8992 15.1867 16.1114C15.2255 16.1338 15.2702 16.146 15.3515 16.1788C15.3592 16.0395 15.3709 15.926 15.3709 15.8125C15.372 13.4917 15.3672 11.1709 15.3781 8.85023C15.3793 8.58806 15.2951 8.44718 15.069 8.32167C13.7074 7.56589 12.3524 6.79825 10.9987 6.02832C10.4101 5.69355 10.1546 5.1683 10.288 4.61059C10.4871 3.77826 11.3625 3.39314 12.1461 3.819C13.0965 4.33546 14.0321 4.87918 14.9745 5.41041C15.0851 5.47278 15.1982 5.53077 15.3717 5.62376C15.3717 5.4435 15.3717 5.31781 15.3717 5.19213C15.3722 3.93059 15.3582 2.66882 15.3778 1.40758C15.3928 0.443915 16.254 -0.158611 17.0869 0.195917C17.6446 0.433327 17.8663 0.890044 17.8637 1.48182C17.8584 2.70764 17.8624 3.93349 17.8625 5.15933C17.8625 5.28857 17.8625 5.41781 17.8625 5.61756C18.0164 5.53862 18.1262 5.48679 18.2317 5.4274C19.1952 4.88525 20.1543 4.33504 21.1226 3.80174C21.5642 3.55856 22.0173 3.57577 22.4381 3.86429C22.8344 4.13599 23.0101 4.52882 22.9675 5.00282C22.9247 5.48098 22.6456 5.80073 22.2347 6.03117C20.8867 6.78706 19.547 7.5577 18.1946 8.30552C17.9423 8.44499 17.8542 8.60094 17.8557 8.88815C17.8679 11.1851 17.8625 13.482 17.8625 15.779C17.8625 15.8957 17.8625 16.0124 17.8625 16.1865C17.996 16.1233 18.0881 16.0873 18.1727 16.0386C20.2124 14.8634 22.25 13.6847 24.2923 12.5143C24.479 12.4073 24.5543 12.2914 24.5505 12.0691C24.527 10.6888 24.5206 9.30825 24.5081 7.92777C24.5065 7.74926 24.5001 7.57077 24.5001 7.39227C24.5002 6.5297 24.9977 5.95762 25.7471 5.95625C26.4848 5.9549 26.9858 6.50329 26.9927 7.34978C27.0022 8.51541 26.9951 9.68117 26.9951 10.9332C27.1848 10.831 27.2954 10.7751 27.4025 10.7132C28.4938 10.083 29.5798 9.44354 30.677 8.8238C31.4894 8.36495 32.3882 8.74286 32.5858 9.60574C32.7105 10.1508 32.4598 10.6702 31.8916 11.0015C30.8132 11.6304 29.73 12.2509 28.649 12.8752C28.5466 12.9344 28.4459 12.9963 28.2964 13.0855C28.4307 13.1703 28.5344 13.2396 28.6415 13.3029C29.5835 13.8588 30.5303 14.4069 31.467 14.9716C31.9703 15.275 32.1969 15.7967 32.0827 16.304C31.9648 16.828 31.5627 17.2551 31.0316 17.2723C30.709 17.2828 30.3451 17.1797 30.0611 17.0191C28.7054 16.2528 27.3697 15.4513 26.0301 14.6567C25.8756 14.5651 25.7597 14.5344 25.583 14.6374C23.5079 15.8462 21.4262 17.0435 19.3466 18.2445C19.288 18.2784 19.2342 18.3206 19.1448 18.3819C19.2846 18.4686 19.3898 18.5379 19.4987 18.6008C21.4955 19.755 23.495 20.9046 25.4869 22.0673C25.7077 22.1962 25.8644 22.21 26.0915 22.0732C27.4359 21.2635 28.7877 20.4661 30.1448 19.6781C30.9738 19.1967 31.8769 19.5647 32.08 20.4469C32.2028 20.9799 31.9623 21.4914 31.4135 21.8202C30.5058 22.364 29.5923 22.898 28.6815 23.4367C28.5702 23.5026 28.4608 23.5716 28.304 23.6676C28.4363 23.7512 28.5374 23.82 28.643 23.8811C29.7438 24.5187 30.8519 25.1439 31.9445 25.7952C32.8073 26.3094 32.845 27.431 32.0295 27.9427C31.5553 28.2403 31.0828 28.1746 30.6155 27.903C29.5568 27.2877 28.495 26.6778 27.434 26.0664C27.3231 26.0025 27.2094 25.9433 27.0329 25.8468C27.0329 26.0426 27.0346 26.1899 27.0327 26.3371C27.0186 27.4081 27.0117 28.4793 26.9862 29.5501C26.9707 30.1995 26.5616 30.6757 25.9612 30.7871C25.4044 30.8903 24.8073 30.5747 24.611 30.0311C24.5286 29.803 24.5047 29.5429 24.5055 29.2975C24.5105 27.7623 24.5295 26.2271 24.5456 24.6919C24.5474 24.5229 24.5436 24.3898 24.3554 24.2822C22.2499 23.0785 20.1518 21.862 18.0513 20.6497C18.0118 20.6269 17.967 20.6133 17.8829 20.5777C17.8752 20.7163 17.8634 20.8294 17.8633 20.9425C17.8622 23.2632 17.8669 25.584 17.8564 27.9047C17.8552 28.1646 17.9334 28.309 18.1616 28.4355C19.534 29.1962 20.9016 29.9658 22.2632 30.7458C23.033 31.1868 23.2055 32.0426 22.6754 32.6796C22.2816 33.1528 21.6413 33.2497 21.0258 32.908C20.0903 32.3888 19.1621 31.8565 18.2303 31.3308C18.1297 31.2741 18.0254 31.2241 17.8625 31.1398V31.5659C17.8625 32.7322 17.8384 33.8992 17.871 35.0646C17.8925 35.8304 17.6372 36.3783 16.9028 36.6612H16.3315Z" fill="#27AAE2"/>
</g>
<defs>
<clipPath id="clip0_3142_14676">
<rect width="33" height="37" fill="white"/>
</clipPath>
</defs>
</svg>
