<svg width="30" height="30" viewBox="0 0 30 30" fill="none" xmlns="http://www.w3.org/2000/svg">
<rect width="30" height="30" rx="15" fill="black"/>
<path d="M19.183 12.0805C20.5334 13.0493 22.1878 13.6193 23.9745 13.6193V10.1688C23.6364 10.1689 23.2991 10.1335 22.9683 10.0631V12.7792C21.1816 12.7792 19.5275 12.2092 18.1767 11.2405V18.282C18.1767 21.8045 15.3313 24.6599 11.8215 24.6599C10.5119 24.6599 9.29471 24.2626 8.28357 23.5812C9.43762 24.7654 11.047 25.5 12.8275 25.5C16.3376 25.5 19.1831 22.6446 19.1831 19.1219V12.0805H19.183ZM20.4243 8.59937C19.7342 7.8427 19.281 6.86484 19.183 5.78378V5.33997H18.2294C18.4694 6.714 19.2881 7.88788 20.4243 8.59937ZM10.5035 20.8781C10.1179 20.3707 9.90956 19.75 9.91049 19.1118C9.91049 17.5008 11.212 16.1945 12.8176 16.1945C13.1169 16.1944 13.4143 16.2404 13.6995 16.3312V12.8035C13.3662 12.7577 13.0299 12.7382 12.6937 12.7454V15.4911C12.4083 15.4003 12.1107 15.3542 11.8114 15.3545C10.2057 15.3545 8.90431 16.6606 8.90431 18.2719C8.90431 19.4112 9.55483 20.3976 10.5035 20.8781Z" fill="#FF004F"/>
<path d="M18.1766 11.2404C19.5274 12.2091 21.1816 12.7791 22.9682 12.7791V10.0631C21.9709 9.84987 21.088 9.32685 20.4242 8.59937C19.288 7.88781 18.4694 6.71392 18.2293 5.33997H15.7246V19.1218C15.7189 20.7284 14.4196 22.0294 12.8174 22.0294C11.8732 22.0294 11.0345 21.5777 10.5032 20.8781C9.5546 20.3976 8.90408 19.4111 8.90408 18.272C8.90408 16.6608 10.2055 15.3546 11.8112 15.3546C12.1188 15.3546 12.4153 15.4026 12.6935 15.4912V12.7455C9.24531 12.8169 6.47217 15.6444 6.47217 19.1218C6.47217 20.8577 7.16274 22.4314 8.28356 23.5812C9.29469 24.2626 10.5119 24.66 11.8215 24.66C15.3314 24.66 18.1767 21.8045 18.1767 18.282V11.2404H18.1766Z" fill="white"/>
<path d="M22.9683 10.0631V9.32867C22.069 9.33004 21.1873 9.07729 20.4243 8.59931C21.0997 9.34143 21.9891 9.85313 22.9683 10.0631ZM18.2294 5.33999C18.2065 5.20867 18.1889 5.07649 18.1767 4.94381V4.5H14.7183V18.282C14.7128 19.8884 13.4136 21.1894 11.8112 21.1894C11.3408 21.1894 10.8966 21.0773 10.5033 20.8782C11.0345 21.5778 11.8733 22.0293 12.8175 22.0293C14.4196 22.0293 15.7191 20.7285 15.7247 19.1219V5.33999H18.2294ZM12.6937 12.7455V11.9637C12.4047 11.924 12.1134 11.9041 11.8216 11.9043C8.31149 11.9042 5.46606 14.7597 5.46606 18.282C5.46606 20.4902 6.58437 22.4363 8.28371 23.5811C7.1629 22.4314 6.47232 20.8576 6.47232 19.1218C6.47232 15.6445 9.24539 12.817 12.6937 12.7455Z" fill="#00F2EA"/>
</svg>
