<svg width="142" height="48" viewBox="0 0 142 48" fill="none" xmlns="http://www.w3.org/2000/svg">
<path d="M12.8825 25.6391V25.2346C12.8825 24.2749 12.1122 23.4973 11.1594 23.4973H8.42159C7.47035 23.4973 6.69852 24.2749 6.69852 25.2346V25.5993C6.69852 26.5533 7.46751 27.3267 8.41441 27.3267H14.5178C17.3137 27.3267 19.581 29.6122 19.581 32.429V35.4165C19.581 38.8456 16.8233 41.6238 13.4195 41.6238H6.16146C2.75917 41.6238 0 38.8456 0 35.4165V33.7505H6.69852V34.6106C6.69852 35.5704 7.47035 36.3478 8.42159 36.3478H11.1594C12.1122 36.3478 12.8825 35.5704 12.8825 34.6106V33.9442C12.8825 32.99 12.115 32.2153 11.1679 32.2153H5.06449C2.2673 32.2153 0 29.9312 0 27.1143V24.4286C0 20.9996 2.75917 18.2198 6.16146 18.2198H13.4182C16.8218 18.2198 19.581 21.0011 19.581 24.4286V25.6391H12.8825Z" fill="#010821"/>
<path d="M43.8659 18.363V34.513C43.8659 38.3621 40.7689 41.4807 36.9497 41.4807H30.0845C26.2637 41.4807 23.1682 38.3621 23.1682 34.513V18.363H29.7805V33.0719C29.7805 34.4161 30.8618 35.5054 32.1962 35.5054H34.8365C36.1709 35.5054 37.2522 34.4161 37.2522 33.0719V18.363H43.8659Z" fill="#010821"/>
<path d="M120.003 41.3592H113.063V18.4845H120.003V41.3592Z" fill="#010821"/>
<path d="M136.364 41.3592H129.424V18.4845H136.364V41.3592Z" fill="#010821"/>
<path d="M142 24.2004H123.6V18.4845H142V24.2004Z" fill="#010821"/>
<path d="M53.0287 36.8633C53.0287 36.2313 53.5369 35.7195 54.164 35.7195H55.3763C56.0034 35.7195 56.513 36.2313 56.513 36.8633V36.9525C56.513 37.5844 56.0034 38.0963 55.3763 38.0963H54.164C53.5369 38.0963 53.0287 37.5844 53.0287 36.9525V36.8633ZM56.513 43.0738C56.513 43.7114 55.9991 44.2293 55.3662 44.2293H54.1741C53.5412 44.2293 53.0287 43.7114 53.0287 43.0738V43.0064C53.0287 42.3687 53.5412 41.851 54.1741 41.851H55.3662C55.9991 41.851 56.513 42.3687 56.513 43.0064V43.0738ZM60.7466 37.1075V35.9169C60.7466 33.9028 59.1264 32.2705 57.1272 32.2705H52.3912C50.3922 32.2705 48.7719 33.9028 48.7719 35.9169V37.1075C48.7719 38.5995 49.9712 39.8077 51.4505 39.8077H51.3706C49.9362 39.8077 48.7719 40.9792 48.7719 42.4259V44.2058C48.7719 46.3019 50.4574 48 52.538 48H56.9805C59.0611 48 60.7466 46.3019 60.7466 44.2058V42.4259C60.7466 40.9792 59.5823 39.8077 58.1463 39.8077H58.0665C59.5474 39.8077 60.7466 38.5995 60.7466 37.1075Z" fill="#010821"/>
<path d="M72.2507 42.0293C72.2507 43.081 71.4043 43.9352 70.3604 43.9352H69.9074C68.8636 43.9352 68.0172 43.081 68.0172 42.0293V37.419C68.0172 36.3672 68.8636 35.5146 69.9074 35.5146H70.3604C71.4043 35.5146 72.2507 36.3672 72.2507 37.419V42.0293ZM72.165 31.9763H68.1129C65.6421 31.9763 63.6384 33.9933 63.6384 36.4828V43.2989C63.6384 45.7884 65.6421 47.8054 68.1129 47.8054H72.165C74.636 47.8054 76.6396 45.7884 76.6396 43.2989V36.4828C76.6396 33.9933 74.636 31.9763 72.165 31.9763Z" fill="#010821"/>
<path d="M87.5221 42.0293C87.5221 43.081 86.6758 43.9352 85.6318 43.9352H85.1788C84.135 43.9352 83.2887 43.081 83.2887 42.0293V37.419C83.2887 36.3672 84.135 35.5146 85.1788 35.5146H85.6318C86.6758 35.5146 87.5221 36.3672 87.5221 37.419V42.0293ZM87.4364 31.9763H83.3844C80.9135 31.9763 78.91 33.9933 78.91 36.4828V43.2989C78.91 45.7884 80.9135 47.8054 83.3844 47.8054H87.4364C89.9075 47.8054 91.911 45.7884 91.911 43.2989V36.4828C91.911 33.9933 89.9075 31.9763 87.4364 31.9763Z" fill="#010821"/>
<path d="M102.794 42.0293C102.794 43.081 101.947 43.9352 100.903 43.9352H100.45C99.4065 43.9352 98.5601 43.081 98.5601 42.0293V37.419C98.5601 36.3672 99.4065 35.5146 100.45 35.5146H100.903C101.947 35.5146 102.794 36.3672 102.794 37.419V42.0293ZM102.708 31.9763H98.6558C96.185 31.9763 94.1813 33.9933 94.1813 36.4828V43.2989C94.1813 45.7884 96.185 47.8054 98.6558 47.8054H102.708C105.179 47.8054 107.182 45.7884 107.182 43.2989V36.4828C107.182 33.9933 105.179 31.9763 102.708 31.9763Z" fill="#010821"/>
<path d="M85.0149 16.7496L88.0412 13.2236L97.209 25.0118H91.3261L85.0149 16.7496ZM76.0916 20.4877L72.2173 15.4296L64.9392 25.0118H58.6267L72.0958 7.96038L79.0289 16.7995L76.0916 20.4877ZM88.1486 5.05831L82.0947 12.7808L71.9601 9.53674e-06L48.7719 29.8793L67.2884 29.9219L72.336 23.3414L76.0238 28.3212L82.1272 20.7298L89.2766 29.8793H107.183L88.1486 5.05831Z" fill="#48A9DE"/>
</svg>
